# xmcd
#
# Track frame offsets: 
#        150
#        20100
#        41250
#        60000
#        77100
#        96900
#        116775
#        137925
#        156562
#        173662
#
# Disc length: 2578 seconds
#
# Revision: 0
# Processed by: cddbd v1.5.2PL0 Copyright (c) Steve Scherf et al.
# Submitted via: ExactAudioCopy v1.0b3
#
DISCID=800a100a
DTITLE=Kraster - SECRET LOVERS
DYEAR=1900
DGENRE=
TTITLE0=Ne - on - Space Rainbow☆ミ
TTITLE1=ハイジ - 月時計が刻む頃に
TTITLE2=Ne - on - SECRET LOVERS
TTITLE3=みんな - 熱闘士少女
TTITLE4=ハイジ＆Ne - on - WorldS EnD
TTITLE5=Space Rainbow☆ミ (Instrumental)
TTITLE6=月時計が刻む頃に (Instrumental)
TTITLE7=SECRET LOVERS (Instrumental)
TTITLE8=熱闘士少女 (Instrumental)
TTITLE9=WorldS EnD (Instrumental)
EXTD=
EXTT0=
EXTT1=
EXTT2=
EXTT3=
EXTT4=
EXTT5=
EXTT6=
EXTT7=
EXTT8=
EXTT9=
PLAYORDER=
